HIERARCHY
ROOT root
{
	OFFSET 0.000000 0.000000 0.000000
	CHANNELS 6 Xposition Yposition Zposition Zrotation Yrotation Xrotation
	JOINT lhip
	{
		OFFSET 0.058581 -0.082280 -0.017664
		CHANNELS 3 Zrotation Yrotation Xrotation
		JOINT lknee
		{
			OFFSET 0.043451 -0.386469 0.008037
			CHANNELS 3 Zrotation Yrotation Xrotation
			JOINT lankle
			{
				OFFSET -0.014790 -0.426874 -0.037428
				CHANNELS 3 Zrotation Yrotation Xrotation
				JOINT ltoe
				{
					OFFSET 0.041054 -0.060286 0.122042
					CHANNELS 3 Zrotation Yrotation Xrotation
					End Site
					{
						OFFSET 0.000000 0.000000 0.000000
					}
				}
			}
		}
	}
	JOINT rhip
	{
		OFFSET -0.060310 -0.090513 -0.013543
		CHANNELS 3 Zrotation Yrotation Xrotation
		JOINT rknee
		{
			OFFSET -0.043257 -0.383688 -0.004843
			CHANNELS 3 Zrotation Yrotation Xrotation
			JOINT rankle
			{
				OFFSET 0.019056 -0.420046 -0.034562
				CHANNELS 3 Zrotation Yrotation Xrotation
				JOINT rtoe
				{
					OFFSET -0.034840 -0.062106 0.130323
					CHANNELS 3 Zrotation Yrotation Xrotation
					End Site
					{
						OFFSET 0.000000 0.000000 0.000000
					}
				}
			}
		}
	}
	JOINT lowerback
	{
		OFFSET 0.004439 0.124404 -0.038385
		CHANNELS 3 Zrotation Yrotation Xrotation
		JOINT upperback
		{
			OFFSET 0.004488 0.137956 0.026820
			CHANNELS 3 Zrotation Yrotation Xrotation
			JOINT chest
			{
				OFFSET -0.002265 0.056032 0.002855
				CHANNELS 3 Zrotation Yrotation Xrotation
				JOINT lowerneck
				{
					OFFSET -0.013390 0.211636 -0.033468
					CHANNELS 3 Zrotation Yrotation Xrotation
					JOINT upperneck
					{
						OFFSET 0.010113 0.088937 0.050410
						CHANNELS 3 Zrotation Yrotation Xrotation
						End Site
						{
							OFFSET 0.000000 0.000000 0.000000
						}
					}
				}
				JOINT lclavicle
				{
					OFFSET 0.071702 0.114000 -0.018898
					CHANNELS 3 Zrotation Yrotation Xrotation
					JOINT lshoulder
					{
						OFFSET 0.122921 0.045205 -0.019046
						CHANNELS 3 Zrotation Yrotation Xrotation
						JOINT lelbow
						{
							OFFSET 0.255332 -0.015649 -0.022946
							CHANNELS 3 Zrotation Yrotation Xrotation
							JOINT lwrist
							{
								OFFSET 0.265709 0.012698 -0.007375
								CHANNELS 3 Zrotation Yrotation Xrotation
								End Site
								{
									OFFSET 0.000000 0.000000 0.000000
								}
							}
						}
					}
				}
				JOINT rclavicle
				{
					OFFSET -0.082954 0.112472 -0.023707
					CHANNELS 3 Zrotation Yrotation Xrotation
					JOINT rshoulder
					{
						OFFSET -0.113228 0.046853 -0.008472
						CHANNELS 3 Zrotation Yrotation Xrotation
						JOINT relbow
						{
							OFFSET -0.260127 -0.014369 -0.031269
							CHANNELS 3 Zrotation Yrotation Xrotation
							JOINT rwrist
							{
								OFFSET -0.269108 0.006794 -0.006027
								CHANNELS 3 Zrotation Yrotation Xrotation
								End Site
								{
									OFFSET 0.000000 0.000000 0.000000
								}
							}
						}
					}
				}
			}
		}
	}
}
MOTION
Frames: 17
Frame Time: 0.033333
0.137332 -1.570001 0.972304 -93.506192 0.402257 88.780421 15.617432 8.856992 -23.366054 -1.935037 4.567020 23.228434 -2.074576 6.795883 1.327548 0.000000 -0.000000 0.000000 2.761116 -25.159732 -7.575628 10.026916 -5.123557 16.370141 -2.925723 11.089317 -16.979333 0.000000 -0.000000 0.000000 1.478693 8.206171 10.306287 1.591852 -3.249230 2.188617 2.212920 -0.253303 -5.851192 4.588193 -2.517078 -7.408609 6.906598 -7.513669 14.454305 -26.638711 -2.460754 -1.680090 -54.241761 -6.943159 0.695334 15.727814 -23.234462 2.207640 -4.843974 -1.353279 -5.093391 21.391868 7.764364 5.140002 48.898738 8.456117 1.259619 -0.932622 22.389584 19.288629 13.488966 1.442160 -4.648105 
0.137379 -1.570468 0.972119 -93.551240 0.200520 88.836873 15.496957 8.800302 -23.367287 -2.069086 4.608740 23.172940 -1.853590 6.830381 1.265440 0.000000 -0.000000 0.000000 2.690552 -24.479680 -7.584108 9.979205 -4.848123 15.957807 -2.534504 10.477790 -16.445725 0.000000 -0.000000 0.000000 0.944842 8.145247 10.529288 1.686152 -2.948799 1.460624 2.311094 -0.282088 -5.379481 4.345260 -2.275170 -7.773701 6.577777 -7.651768 14.707823 -26.387058 -2.166715 -1.712368 -54.453498 -7.405836 1.030327 15.332240 -23.620784 2.441364 -3.630244 -1.547512 -5.494935 21.532273 7.457675 4.859325 49.060579 8.558513 2.341286 -0.699285 23.095117 19.166670 12.240715 1.566838 -5.042331 
0.137720 -1.571094 0.972087 -93.543819 0.188591 88.885334 15.419740 8.618347 -23.362140 -1.960346 4.673280 23.019524 -1.633004 6.938972 1.274617 0.000000 -0.000000 0.000000 2.731581 -24.184320 -7.665496 10.054702 -4.797001 15.856775 -2.426744 9.987972 -16.465762 0.000000 -0.000000 0.000000 0.809160 8.138456 10.493464 1.722083 -2.822242 1.302504 2.388848 -0.380921 -5.189680 4.378467 -2.485463 -8.173087 6.234333 -7.367632 15.077568 -26.557684 -2.065259 -1.721002 -54.441524 -7.700201 1.146509 15.378468 -23.913324 2.330578 -3.769594 -1.614408 -5.426909 21.509109 7.365970 4.780629 48.917336 8.602095 2.709291 -0.329839 23.917450 19.351284 13.035985 1.737775 -5.186922 
0.137743 -1.571326 0.972049 -93.484400 0.274137 88.894251 15.520310 8.598578 -23.394931 -1.897173 4.779025 23.008579 -1.217070 6.930733 1.225076 0.000000 -0.000000 0.000000 2.836176 -24.077554 -7.630998 10.070082 -4.707730 15.712700 -2.440863 9.918744 -16.240732 0.000000 -0.000000 0.000000 0.782178 8.216463 10.605732 1.662014 -2.732233 0.976485 2.430870 -0.477410 -5.065776 4.244426 -2.649153 -7.906812 6.356811 -7.023927 14.932275 -26.517423 -2.102197 -1.580470 -54.511634 -7.905798 1.167543 15.489681 -24.229909 2.383067 -4.019701 -1.609474 -5.676889 21.320038 7.318046 4.724837 49.251586 8.595519 2.757841 -0.229890 24.357846 19.529804 12.901965 1.866594 -5.360048 
0.137744 -1.571330 0.972049 -93.483974 0.274590 88.894120 15.520537 8.598394 -23.395838 -1.897160 4.779199 23.009887 -1.217502 6.930493 1.225009 0.000000 -0.000000 0.000000 2.836425 -24.076637 -7.631445 10.069820 -4.708119 15.713180 -2.440528 9.917157 -16.240341 0.000000 -0.000000 0.000000 0.781359 8.215662 10.606035 1.662377 -2.732371 0.976265 2.431309 -0.476589 -5.065579 4.243065 -2.648710 -7.905678 6.357804 -7.022673 14.931241 -26.516681 -2.103242 -1.580461 -54.512563 -7.905771 1.167244 15.489710 -24.231403 2.383393 -4.018548 -1.609598 -5.676517 21.319159 7.319101 4.725152 49.251284 8.594791 2.757919 -0.229285 24.362514 19.531965 12.903803 1.865201 -5.361117 
0.137745 -1.571335 0.972049 -93.483534 0.275145 88.893573 15.520591 8.598393 -23.396128 -1.896738 4.778845 23.011075 -1.217821 6.930154 1.224964 0.000000 -0.000000 0.000000 2.836494 -24.076345 -7.631031 10.069677 -4.708457 15.713415 -2.440143 9.916118 -16.240411 0.000000 -0.000000 0.000000 0.780809 8.214929 10.606107 1.662734 -2.732723 0.977117 2.431625 -0.475522 -5.066123 4.241814 -2.648435 -7.903792 6.358736 -7.021747 14.929946 -26.516454 -2.104549 -1.580394 -54.513020 -7.905609 1.166915 15.489777 -24.232716 2.383638 -4.018062 -1.609596 -5.675939 21.318672 7.320357 4.725993 49.250245 8.593859 2.757156 -0.228846 24.367345 19.533613 12.905100 1.863941 -5.361939 
0.137708 -1.573282 0.972150 -93.345783 0.356436 88.721779 15.436654 8.501066 -23.446226 -1.839205 4.743199 23.278752 -1.385211 7.003031 1.253358 0.000000 -0.000000 0.000000 2.850845 -23.753928 -7.417377 9.841441 -4.854612 15.543384 -2.261744 9.212181 -16.396461 0.000000 -0.000000 0.000000 0.639979 8.039131 10.682826 1.704819 -2.759615 1.073143 2.361108 -0.245653 -5.241725 4.031333 -2.747113 -8.063432 6.157498 -7.310360 15.502347 -26.498601 -2.300295 -1.484331 -54.365340 -8.018549 1.225054 15.282986 -24.389028 2.488806 -3.887518 -1.765112 -5.739975 21.473423 7.562616 4.836713 48.707783 8.422698 2.763774 -0.303664 25.093164 19.674279 13.007892 1.888156 -5.431873 
0.137592 -1.574122 0.972033 -93.298314 0.393144 88.646447 15.466286 8.463334 -23.489281 -1.879041 4.689651 23.523867 -1.557746 6.927177 1.092061 0.000000 -0.000000 0.000000 2.726234 -23.740035 -7.306489 9.896453 -4.945450 15.544429 -2.037994 9.223758 -16.369674 0.000000 -0.000000 0.000000 0.544238 8.053250 10.630773 1.745700 -2.834165 1.122060 2.336958 -0.229152 -5.301009 4.296633 -2.328018 -7.783605 6.273770 -7.300174 15.940497 -26.273399 -2.244649 -1.440892 -54.654471 -8.098697 1.229462 15.476563 -24.191175 2.607923 -3.778149 -1.872316 -5.926072 21.399675 7.624524 4.864290 48.608218 8.575673 2.861673 -0.423654 24.702902 19.851293 12.998544 1.670097 -6.044613 
0.137636 -1.574992 0.971977 -93.308358 0.469724 88.575384 15.554444 8.381567 -23.472810 -1.925020 4.800116 23.607636 -1.116018 7.178254 0.930924 0.000000 -0.000000 0.000000 2.666118 -23.761871 -7.242307 9.987225 -4.798421 15.564993 -2.161781 9.167345 -16.342297 0.000000 -0.000000 0.000000 0.517488 7.970583 10.593500 1.749342 -2.867796 1.154967 2.324396 -0.144347 -5.257938 4.529296 -1.909691 -7.867818 6.313701 -7.058353 16.675404 -26.257247 -2.112252 -1.527601 -54.698140 -8.067172 1.094200 15.504543 -24.177774 2.784971 -3.582137 -1.885050 -5.933828 21.501590 7.595586 5.110564 48.321003 8.918144 2.657621 -0.522104 24.317034 19.811215 12.809094 1.627629 -5.999363 
0.137690 -1.575402 0.971866 -93.302782 0.510087 88.601253 15.558764 8.272578 -23.628917 -1.953765 4.752889 23.800519 -1.357673 7.173121 1.052504 0.000000 -0.000000 0.000000 2.637973 -23.876565 -7.279548 10.066639 -4.846744 15.615995 -2.170825 9.285959 -16.336203 0.000000 -0.000000 0.000000 0.506178 8.026474 10.470617 1.768945 -2.920891 1.188186 2.269196 -0.135485 -5.243398 4.707655 -1.688205 -7.978663 6.286913 -7.189063 17.108612 -26.140097 -2.003600 -1.557749 -54.795645 -8.099627 1.039718 15.575810 -24.056534 2.999781 -3.789555 -1.933447 -5.999607 21.536973 7.526536 5.107258 48.416683 9.098666 2.530441 -1.001217 23.831225 19.723485 13.051329 1.737960 -5.980783 
0.137595 -1.576194 0.971642 -93.304099 0.635727 88.513186 15.702597 8.020868 -23.676119 -2.029829 4.672928 24.065805 -0.872561 7.615773 0.999561 0.000000 -0.000000 0.000000 2.704755 -23.880081 -7.149977 10.134020 -4.608313 15.556148 -2.077394 8.896158 -16.281889 0.000000 -0.000000 0.000000 0.407712 8.194761 10.562329 1.916604 -2.760920 0.873585 2.353556 -0.252580 -5.103190 4.892017 -1.868257 -8.551849 5.805244 -7.414708 18.446364 -26.204774 -1.793184 -1.416151 -54.779612 -8.203765 1.072127 15.641452 -23.901323 3.209442 -3.758753 -1.926477 -6.190856 21.459161 7.255331 4.962225 48.331421 8.937644 2.615600 -1.537596 23.530681 19.466788 13.597704 1.729898 -6.102610 
0.137514 -1.576694 0.971718 -93.297973 0.687182 88.456862 15.747131 7.906563 -23.675181 -2.051434 4.593873 24.167178 -0.948042 7.641787 1.055451 0.000000 -0.000000 0.000000 2.727507 -23.791138 -7.065254 10.089195 -4.516319 15.473911 -2.091059 8.842557 -16.258947 0.000000 -0.000000 0.000000 0.393467 8.242721 10.642398 1.938220 -2.666458 0.687046 2.423819 -0.323041 -5.045745 4.892115 -1.877183 -8.316716 5.801326 -7.395470 18.554259 -26.241477 -1.737596 -1.343361 -54.764457 -8.220940 1.059813 15.633420 -23.745511 3.244389 -3.798785 -1.914040 -6.289001 21.467283 7.097470 4.923345 48.133420 8.867652 2.585426 -1.436000 23.375426 19.567665 13.280553 1.720508 -6.195737 
0.137880 -1.578129 0.970833 -93.317590 0.689727 88.660517 15.801596 7.850556 -24.217434 -2.268971 4.708400 24.632036 -0.850650 7.598606 1.088458 0.000000 -0.000000 0.000000 2.616568 -23.502067 -7.428171 10.271259 -4.483978 15.549638 -1.860971 8.723684 -15.832609 0.000000 -0.000000 0.000000 -0.067184 8.155386 10.833462 2.131241 -2.467810 -0.261532 2.574463 -0.314733 -4.623652 4.972728 -1.471217 -8.197920 5.806668 -7.605677 18.909277 -25.660267 -1.321964 -1.247232 -55.234724 -8.370504 1.218010 15.465501 -23.379791 3.843652 -2.988114 -2.060759 -6.995817 21.363260 6.695433 4.632889 48.421331 8.996827 3.058362 -1.867422 22.567941 19.699442 12.881193 1.954482 -6.984846 
0.137578 -1.576240 0.969671 -92.667826 0.627576 88.221849 15.931502 7.916905 -24.323244 -2.595482 4.232163 25.310061 -0.728918 7.495140 0.744293 0.000000 -0.000000 0.000000 2.440076 -24.299113 -6.462761 10.323280 -3.926224 14.810120 -1.375597 8.466590 -15.352543 0.000000 -0.000000 0.000000 -1.483894 8.167110 11.913310 2.715322 -2.639372 -1.885907 3.285613 -0.514136 -3.489841 5.244731 -0.675734 -9.418082 5.649029 -8.255232 19.891336 -24.499063 -0.847107 -1.346440 -56.156839 -8.780303 1.171113 15.281686 -23.299211 5.101679 -1.741849 -2.227033 -8.180418 21.079252 6.336043 3.790867 49.214299 8.905834 3.807484 -2.306993 22.281466 20.185001 12.503945 2.164648 -7.806394 
0.136935 -1.577136 0.969171 -92.689649 0.617239 88.282476 15.954140 7.982169 -24.456474 -2.646328 4.287260 25.565238 0.141145 7.412745 0.592670 0.000000 -0.000000 0.000000 2.135445 -24.227525 -6.253079 10.763639 -3.628759 14.407950 -1.064277 8.423097 -14.847304 0.000000 -0.000000 0.000000 -1.901173 8.255584 11.716071 2.928558 -2.580694 -1.825117 3.421995 -0.596372 -3.428655 5.145794 -0.905112 -9.531891 5.503476 -8.377173 19.857510 -24.161410 -0.517904 -1.252399 -56.509379 -9.041495 1.299952 15.446087 -23.039438 5.171593 -1.340492 -2.121849 -8.410659 21.049065 6.170043 3.790755 49.271610 8.941638 4.208392 -2.295249 22.263764 20.164428 12.934974 2.171119 -8.199168 
0.136087 -1.578375 0.968582 -92.921396 0.551503 88.476547 15.842132 8.419568 -24.649775 -2.642776 4.317477 25.824933 0.498176 6.937483 0.643412 0.000000 -0.000000 0.000000 1.914175 -24.437296 -6.356068 11.094964 -3.366105 14.340018 -0.762826 8.550128 -14.485639 0.000000 -0.000000 0.000000 -2.186892 8.562349 10.740384 3.013610 -2.620191 -0.863921 3.382506 -0.584252 -3.688015 4.885572 -1.516592 -9.080617 5.730744 -7.932656 19.394573 -23.834263 -0.769951 -0.810057 -56.692827 -9.205370 1.274440 15.864343 -22.753638 4.732741 -1.545252 -1.811334 -8.592611 21.056826 6.581137 4.388117 49.950052 9.144213 3.391391 -3.271749 21.877502 18.750385 13.587694 1.551881 -6.819120 
0.136027 -1.580004 0.968753 -93.029964 0.592267 88.662600 15.813195 8.582629 -24.935312 -2.628945 4.516562 26.104267 0.932617 6.766812 0.430184 0.000000 -0.000000 0.000000 1.850568 -24.167057 -6.512003 11.369140 -3.145092 14.220489 -0.617978 8.302189 -14.329115 0.000000 -0.000000 0.000000 -2.222568 9.025617 10.091275 3.082015 -2.840622 -0.248574 3.202241 -0.726796 -3.717070 5.303977 -1.220462 -9.850679 5.456445 -7.786714 19.829364 -23.770722 -0.389368 -0.892098 -56.767964 -9.596757 1.772759 16.203024 -22.400619 4.604800 -1.857614 -1.679632 -8.807748 21.881608 6.381777 4.434743 49.118054 9.453210 3.322682 -3.198743 21.389924 18.588390 14.632566 1.738545 -6.277318 
